<?xml version="1.0" encoding="UTF-8"?><svg id="a" xmlns="http://www.w3.org/2000/svg" width="1322" height="334" viewBox="0 0 1322 334"><defs><style>.b{fill:none;stroke:#95c0db;stroke-miterlimit:10;stroke-width:10px;}</style></defs><path class="b" d="M1077,203.5c6-9,36.29-130.929,57-52,20.476,78.037,61.924,68.904,61.924,68.904,0,0,17.895-3.861,27.076-56.904,9-52,31.877,3.532,42,42,10,38,32-29,32-29"/><path class="b" d="M23,209.23s29.294-125.12,49.924-63.574c20.63,61.545,30.076,50.844,30.076,50.844,0,0,18-21,31-21,7.459,0,15.913,7.352,24.959,22.18,27.647,45.319,42.696-50.671,42.696-50.671,0,0,19.805-88.598,35.896-.676,16.091,87.922,36.309,58.164,36.309,58.164,0,0,30.532-97.39,56.526-22.319,25.994,75.072,71.615-32.677,71.615-32.677,0,0,18-40,36.399,9.133,15.073,40.252,21.129,57.36,21.129,57.36,0,0,35.484,139.322,55.082,0,19.598-139.322,24.549-170.433,24.549-170.433,0,0,11.508-56.135,21.639,0,10.131,56.135,20.446,150.82,20.446,150.82,0,0,22.693,265.118,50.337,2.705,27.644-262.413,105.625,51.4,105.625,51.4,0,0,29.69,117.004,62.679-3.382,32.989-120.385,34.946-120.142,34.946-120.142,28.687-64.085,39.466,43.57,62.371,103.234,14.02,36.521,29.69,50.048,42.885,30.434,13.195-19.613,17.319-38.55,17.319-38.55,0,0,22.109-58.1,56.906,0,34.912,58.293,60.03-15.87,63.689-20.58"/></svg>